<svg width="48" height="48" viewBox="0 0 48 48" fill="none" xmlns="http://www.w3.org/2000/svg">
<g clip-path="url(#clip0_1594_4161)">
<path d="M20 2.3094C22.4752 0.880339 25.5248 0.880339 28 2.3094L40.7846 9.6906C43.2598 11.1197 44.7846 13.7607 44.7846 16.6188V31.3812C44.7846 34.2393 43.2598 36.8803 40.7846 38.3094L28 45.6906C25.5248 47.1197 22.4752 47.1197 20 45.6906L7.21539 38.3094C4.74018 36.8803 3.21539 34.2393 3.21539 31.3812V16.6188C3.21539 13.7607 4.74018 11.1197 7.21539 9.6906L20 2.3094Z" fill="url(#paint0_linear_1594_4161)"/>
<path d="M36 15L32.6115 18.7813H22.6688L20.6624 22.4715H24.8535L15 35L18.2548 25.5239H15.2229C16.3376 22.8815 18.6382 17.4055 18.9236 16.6401C19.2803 15.6834 20.0828 15 21.0637 15H36Z" fill="white"/>
<path d="M23.5605 25.4783L25.879 22.4715H30.6051C29.8769 23.2915 28.3848 24.9681 28.2421 25.1139C28.0637 25.2961 27.7962 25.4783 27.5733 25.4783H23.5605Z" fill="white"/>
</g>
<defs>
<linearGradient id="paint0_linear_1594_4161" x1="43.4364" y1="5.13285" x2="-1.73223" y2="51.6184" gradientUnits="userSpaceOnUse">
<stop stop-color="#8BC6EC"/>
<stop offset="1" stop-color="#0F2F6D"/>
</linearGradient>
<clipPath id="clip0_1594_4161">
<rect width="48" height="48" fill="white"/>
</clipPath>
</defs>
</svg>
