<svg width="25" height="24" viewBox="0 0 25 24" fill="none" xmlns="http://www.w3.org/2000/svg">
<path d="M7.69918 8.78022C7.38676 8.46928 6.88023 8.46928 6.56781 8.78022C6.25539 9.09116 6.25539 9.59528 6.56781 9.90622L11.2021 14.5186C11.827 15.1404 12.84 15.1404 13.4649 14.5186L18.0992 9.90622C18.4116 9.59528 18.4116 9.09116 18.0992 8.78022C17.7868 8.46928 17.2802 8.46928 16.9678 8.78022L13.1335 12.5963L13.1335 2.7966C13.1335 2.35687 12.7753 2.0004 12.3335 2.0004C11.8917 2.0004 11.5335 2.35687 11.5335 2.7966L11.5335 12.5963L7.69918 8.78022Z" fill="#FCFCFC"/>
<path fill-rule="evenodd" clip-rule="evenodd" d="M3.3335 19.9992C3.3335 19.4469 3.90913 18.9992 4.61921 18.9992H20.0478C20.7579 18.9992 21.3335 19.4469 21.3335 19.9992C21.3335 20.5515 20.7579 20.9992 20.0478 20.9992H4.61921C3.90913 20.9992 3.3335 20.5515 3.3335 19.9992Z" fill="#FCFCFC"/>
</svg>
