<svg width="16" height="20" viewBox="0 0 16 20" fill="none" xmlns="http://www.w3.org/2000/svg">
<path fill-rule="evenodd" clip-rule="evenodd" d="M5 10L4.10557 11.7889C4.83273 12.1524 5.70762 12.0397 6.31881 11.5036C6.92545 10.9715 7.15248 10.1275 6.89606 9.36363L6.89502 9.3603C6.89407 9.35721 6.89273 9.35282 6.89106 9.34717C6.86904 9.27294 6.79132 8.98803 6.74713 8.58511C6.68721 8.03882 6.69168 7.32129 6.91565 6.5747C7.31019 5.25958 7.8572 4.30588 8.40486 3.61855C8.75872 4.85074 9.40533 6.23376 10.5858 7.41422C10.8113 7.63971 11.0573 7.86371 11.3107 8.09436C12.5658 9.23685 14 10.5425 14 13C14 15.6055 11.4622 18 8.00001 18C4.72613 18 2 15.7736 2 12C2 11.4258 2.09373 10.7329 2.24353 9.99622C2.49464 10.3948 2.76542 10.7188 3.02329 10.9767C3.27363 11.2271 3.50868 11.4121 3.69752 11.5428C3.82774 11.633 3.96216 11.7169 4.10381 11.788C4.10381 11.788 4.10557 11.7889 5 10ZM4.96162 6.13304C4.81983 6.64478 4.74994 7.13825 4.72522 7.5916C4.64919 8.98544 5 10 5 10C5 10 4 9.5 3.5 8C3.3353 7.5059 3.11635 6.90329 2.89675 6.31728C2.89054 6.30069 2.884 6.28443 2.87716 6.2685C2.53619 5.47449 1.4352 5.4982 1.1629 6.33812C0.614975 8.0282 0 10.3031 0 12C0 17 3.74745 20 8.00001 20C12.2526 20 16 17 16 13C16 9.57143 13.7959 7.61225 12.5364 6.49272C12.3265 6.30613 12.1429 6.14286 12 6C10.5939 4.5939 10.1521 2.74612 10.0254 1.47461C9.95525 0.770676 9.27593 0.27145 8.68639 0.662438C6.80108 1.91278 5.55753 3.98241 4.96162 6.13304Z" fill="#6F767E"/>
</svg>
