<svg width="24" height="24" viewBox="0 0 24 24" fill="none" xmlns="http://www.w3.org/2000/svg">
<path fill-rule="evenodd" clip-rule="evenodd" d="M8.3247 6.99838L6.81706 4.94252C6.71454 4.80271 6.52079 4.76708 6.37523 4.86126C4.40281 6.13754 3.86062 8.08714 4.65195 9.52434C5.51737 11.0961 6.85213 13.0237 8.8995 15.0711C10.9469 17.1184 12.8745 18.4532 14.4462 19.3186C15.8834 20.11 17.833 19.5678 19.1093 17.5953C19.2035 17.4498 19.1679 17.256 19.0281 17.1535L16.9722 15.6459C16.6699 15.4242 16.2689 15.3902 15.9336 15.5579L15.1142 15.9676C14.4172 16.3161 13.4617 16.4385 12.5573 15.9732C11.9527 15.6621 11.0207 15.071 9.96016 14.0104C8.89961 12.9499 8.30844 12.0179 7.99736 11.4132C7.53207 10.5088 7.6545 9.55339 8.00299 8.85641L8.41272 8.03696C8.58038 7.70164 8.5464 7.3007 8.3247 6.99838ZM5.28873 3.18212C2.74822 4.82598 1.44046 7.83826 2.89996 10.489C3.85249 12.219 5.29932 14.2993 7.48528 16.4853C9.67124 18.6712 11.7516 20.1181 13.4816 21.0706C16.1323 22.5301 19.1446 21.2223 20.7884 18.6818C21.458 17.647 21.2047 16.2696 20.2108 15.5407L18.1549 14.0331C17.2479 13.368 16.0451 13.266 15.0392 13.769L14.2197 14.1787C13.9825 14.2973 13.7081 14.3161 13.4723 14.1948C13.0426 13.9737 12.2812 13.503 11.3744 12.5962C10.4676 11.6894 9.99686 10.928 9.77581 10.4983C9.65448 10.2625 9.67324 9.98806 9.79184 9.75084L10.2016 8.93139C10.7046 7.92542 10.6026 6.72262 9.93751 5.81565L8.42987 3.75979C7.70098 2.76584 6.32356 2.51253 5.28873 3.18212Z" fill="#6F767E"/>
</svg>
