<svg width="16" height="16" viewBox="0 0 16 16" fill="none" xmlns="http://www.w3.org/2000/svg">
<path fill-rule="evenodd" clip-rule="evenodd" d="M6.59462 0.37669C7.46455 -0.125563 8.53635 -0.125563 9.40628 0.37669L13.8995 2.97086C14.7694 3.47312 15.3053 4.40132 15.3053 5.40583V10.5942C15.3053 11.5987 14.7694 12.5269 13.8995 13.0291L9.40628 15.6233C8.53635 16.1256 7.46455 16.1256 6.59462 15.6233L2.10138 13.0291C1.23145 12.5269 0.695557 11.5987 0.695557 10.5942V5.40583C0.695557 4.40132 1.23146 3.47312 2.10138 2.97086L6.59462 0.37669ZM12.2179 4.83689L11.027 6.16586H7.53259L6.82743 7.46281H8.30042L4.83734 11.866L5.98125 8.53559H4.91569C5.30744 7.60691 6.11601 5.68231 6.2163 5.41331C6.34166 5.07706 6.62372 4.83689 6.96846 4.83689H12.2179ZM8.66083 7.46281L7.84599 8.51958H9.25629C9.33464 8.51958 9.42866 8.45553 9.49134 8.39149C9.54149 8.34025 10.0659 7.75102 10.3219 7.46281H8.66083Z" fill="black"/>
</svg>
